<?xml version="1.0" encoding="UTF-8" standalone="no"?>
<!-- Created with Inkscape (http://www.inkscape.org/) -->

<svg
   width="210mm"
   height="297mm"
   viewBox="0 0 210 297"
   version="1.1"
   id="svg1"
   xml:space="preserve"
   inkscape:version="1.4.2 (f4327f4, 2025-05-13)"
   sodipodi:docname="logo.svg"
   xmlns:inkscape="http://www.inkscape.org/namespaces/inkscape"
   xmlns:sodipodi="http://sodipodi.sourceforge.net/DTD/sodipodi-0.dtd"
   xmlns:xlink="http://www.w3.org/1999/xlink"
   xmlns="http://www.w3.org/2000/svg"
   xmlns:svg="http://www.w3.org/2000/svg"><sodipodi:namedview
     id="namedview1"
     pagecolor="#ffffff"
     bordercolor="#000000"
     borderopacity="0.25"
     inkscape:showpageshadow="2"
     inkscape:pageopacity="0.0"
     inkscape:pagecheckerboard="0"
     inkscape:deskcolor="#d1d1d1"
     inkscape:document-units="mm"
     inkscape:zoom="1.4702524"
     inkscape:cx="313.55161"
     inkscape:cy="488.69161"
     inkscape:window-width="2560"
     inkscape:window-height="1369"
     inkscape:window-x="-8"
     inkscape:window-y="-8"
     inkscape:window-maximized="1"
     inkscape:current-layer="layer1" /><defs
     id="defs1"><linearGradient
       id="linearGradient3645"
       inkscape:collect="always"><stop
         style="stop-color:#e7a896;stop-opacity:1;"
         offset="0"
         id="stop3645" /><stop
         style="stop-color:#d4887a;stop-opacity:1;"
         offset="1"
         id="stop3646" /></linearGradient><linearGradient
       id="linearGradient3634"
       inkscape:collect="always"><stop
         style="stop-color:#e8b9a7;stop-opacity:1;"
         offset="0"
         id="stop3635" /><stop
         style="stop-color:#cf8b82;stop-opacity:1;"
         offset="0.5"
         id="stop3637" /><stop
         style="stop-color:#7f1e25;stop-opacity:1;"
         offset="1"
         id="stop3636" /></linearGradient><linearGradient
       id="linearGradient3622"
       inkscape:collect="always"><stop
         style="stop-color:#797979;stop-opacity:0;"
         offset="0"
         id="stop3623" /><stop
         style="stop-color:#000000;stop-opacity:0;"
         offset="1"
         id="stop3624" /></linearGradient><linearGradient
       id="linearGradient3589"
       inkscape:collect="always"><stop
         style="stop-color:#000000;stop-opacity:0;"
         offset="0"
         id="stop3589" /><stop
         style="stop-color:#000000;stop-opacity:0;"
         offset="1"
         id="stop3590" /></linearGradient><linearGradient
       id="swatch3545"
       inkscape:swatch="solid"><stop
         style="stop-color:#ffffff;stop-opacity:1;"
         offset="0"
         id="stop3546" /></linearGradient><inkscape:path-effect
       effect="powerclip"
       message=""
       id="path-effect30"
       is_visible="true"
       lpeversion="1"
       inverse="true"
       flatten="false"
       hide_clip="false" /><inkscape:path-effect
       effect="fillet_chamfer"
       id="path-effect5"
       is_visible="true"
       lpeversion="1"
       nodesatellites_param="F,0,0,1,0,0,0,1 @ F,0,0,1,0,0,0,1 @ F,0,0,1,0,8.9379828,0,1 @ F,0,0,1,0,7.7280374,0,1"
       radius="0"
       unit="px"
       method="auto"
       mode="F"
       chamfer_steps="1"
       flexible="false"
       use_knot_distance="true"
       apply_no_radius="true"
       apply_with_radius="true"
       only_selected="false"
       hide_knots="false" /><inkscape:path-effect
       effect="fillet_chamfer"
       id="path-effect4"
       is_visible="true"
       lpeversion="1"
       nodesatellites_param="F,0,0,1,0,0,0,1 @ F,0,0,1,0,0,0,1 @ F,0,0,1,0,8.4401701,0,1 @ F,0,0,1,0,8.3280582,0,1"
       radius="0"
       unit="px"
       method="auto"
       mode="F"
       chamfer_steps="1"
       flexible="false"
       use_knot_distance="true"
       apply_no_radius="true"
       apply_with_radius="true"
       only_selected="false"
       hide_knots="false" /><inkscape:path-effect
       effect="fillet_chamfer"
       id="path-effect3"
       is_visible="true"
       lpeversion="1"
       nodesatellites_param="F,0,0,1,0,0,0,1 @ F,0,0,1,0,0,0,1 @ F,0,0,1,0,0,0,1 @ F,0,0,1,0,0,0,1 @ F,0,0,1,0,0,0,1 @ F,0,0,1,0,0,0,1 @ F,0,0,1,0,0,0,1 @ F,0,0,1,0,7.7431098,0,1"
       radius="0"
       unit="px"
       method="auto"
       mode="F"
       chamfer_steps="1"
       flexible="false"
       use_knot_distance="true"
       apply_no_radius="true"
       apply_with_radius="true"
       only_selected="false"
       hide_knots="false" /><inkscape:path-effect
       effect="fillet_chamfer"
       id="path-effect2"
       is_visible="true"
       lpeversion="1"
       nodesatellites_param="F,0,0,1,0,0,0,1 @ F,0,0,1,0,0,0,1 @ F,0,0,1,0,0,0,1 @ F,0,0,1,0,0,0,1"
       radius="0"
       unit="px"
       method="auto"
       mode="F"
       chamfer_steps="1"
       flexible="false"
       use_knot_distance="true"
       apply_no_radius="true"
       apply_with_radius="true"
       only_selected="false"
       hide_knots="false" /><clipPath
       clipPathUnits="userSpaceOnUse"
       id="clipPath29"><path
         id="lpe_path-effect30"
         style="fill:#000000;fill-opacity:0.371622;stroke-width:0.294721;stroke-dasharray:none"
         class="powerclip"
         d="M 34.444601,56.074599 H 158.77485 V 169.66081 H 34.444601 Z M 145.08931,136.29136 h 5e-5 c 0,0 -4.34426,3.71367 -0.0847,3.38566 4.25954,-0.328 8.77434,0.95028 8.77434,0.95028 l -0.0202,-3.64308 z" /></clipPath><radialGradient
       inkscape:collect="always"
       xlink:href="#linearGradient3589"
       id="radialGradient3590"
       cx="88.958878"
       cy="87.870438"
       fx="88.958878"
       fy="87.870438"
       r="59.53566"
       gradientTransform="matrix(1.154256,-0.04181508,0.03464928,0.95645242,-16.767084,8.2842945)"
       gradientUnits="userSpaceOnUse" /><linearGradient
       inkscape:collect="always"
       xlink:href="#linearGradient3622"
       id="linearGradient3624"
       x1="23.292513"
       y1="165.32857"
       x2="172.12316"
       y2="165.32857"
       gradientUnits="userSpaceOnUse" /><radialGradient
       inkscape:collect="always"
       xlink:href="#linearGradient3634"
       id="radialGradient3636"
       cx="97.707839"
       cy="165.32857"
       fx="97.707839"
       fy="165.32857"
       r="74.415326"
       gradientTransform="matrix(1,0,0,0.84561365,0,25.524474)"
       gradientUnits="userSpaceOnUse" /><linearGradient
       inkscape:collect="always"
       xlink:href="#linearGradient3645"
       id="linearGradient3646"
       x1="38.759196"
       y1="105.06345"
       x2="157.83051"
       y2="105.06345"
       gradientUnits="userSpaceOnUse" /></defs><g
     inkscape:label="Layer 1"
     inkscape:groupmode="layer"
     id="layer1"><g
       id="use4"
       style="display:none" /><g
       id="g34"
       style="display:inline;fill:#000000;fill-opacity:1"><path
         id="rect12-1"
         style="display:inline;fill:url(#linearGradient3646);fill-opacity:1;stroke:url(#radialGradient3590);stroke-width:0.294"
         d="m 128.3319,48.230076 c 3.52481,0 6.36247,2.894413 6.36247,6.489716 v 15.269925 c 0,3.595303 -2.83766,6.489716 -6.36247,6.489716 -3.5248,0 -6.36246,-2.894413 -6.36246,-6.489716 V 54.719792 c 0,-3.595303 2.83766,-6.489716 6.36246,-6.489716 z m -61.653242,1.142673 c 3.524805,0 6.362464,2.894414 6.362464,6.489716 V 71.13239 c 0,3.595303 -2.837659,6.489717 -6.362464,6.489717 -3.524806,0 -6.362465,-2.894414 -6.362465,-6.489717 V 55.862465 c 0,-3.595302 2.837659,-6.489716 6.362465,-6.489716 z m 71.463302,10.958452 -0.69143,0.0093 -10e-6,10.469129 c -4e-5,4.652748 -3.7457,8.398454 -8.39845,8.398453 l -1.78129,-2e-6 c -4.65275,3e-6 -8.39845,-3.745707 -8.39845,-8.398454 l 10e-6,-10.213312 -43.286256,0.59583 v 10.32185 c -5e-6,4.652747 -3.745707,8.398454 -8.398453,8.398454 l -1.781288,-3e-6 c -4.652747,4e-6 -8.398454,-3.745707 -8.398454,-8.398454 l 1e-6,-10.066052 -0.343648,0.0047 c -7.024331,0.139669 -13.499142,4.606168 -16.236734,10.249503 -1.815061,3.741608 -1.534502,10.655576 -1.453142,14.80168 l 1.159102,59.056337 c 0.181376,9.24295 8.201792,16.52735 17.982882,16.33287 l 13.023494,-0.25891 12.081434,-8.29872 0.04806,-0.002 c 0.05991,-0.0477 0.11937,-0.0959 0.178284,-0.1447 l -26.647985,0.41496 c -4.267665,0.0666 -7.778648,-3.33904 -7.841899,-7.60676 l -0.811837,-54.872103 99.509169,-1.548743 1.03481,43.088096 c 1.46894,-0.029 6.16599,0.1862 8.9886,0.7754 L 156.12483,76.663654 C 155.94346,67.420712 147.92305,60.136317 138.14196,60.3308 Z"
         sodipodi:nodetypes="sssssssssssssscccsssccssssccscccccccccccccccc" /><path
         id="path25"
         style="fill:url(#radialGradient3636);fill-opacity:1;fill-rule:nonzero;stroke:url(#linearGradient3624);stroke-width:0.294;stroke-dasharray:none"
         d="m 112.22778,102.55291 c -1.37788,-0.0298 -2.95236,0.10527 -4.70204,0.51883 -6.99871,1.65424 -8.653222,4.96301 -8.653222,4.96301 0,0 -8.143747,-7.88932 -18.578194,-3.81734 -10.434447,4.07198 -10.434505,13.74283 -10.434505,13.74283 0,0 -0.254612,7.63501 4.835363,14.63373 5.089975,6.99871 17.051673,15.52412 17.051673,15.52412 l 5.980513,-4.96249 c 0,0 -23.542283,-15.20951 -19.59622,-25.95914 3.69023,-10.05271 12.851929,-5.34437 12.851929,-5.34437 0,0 1.909175,0.38203 5.853906,5.47201 3.944727,5.08997 -0.382219,4.45378 5.725747,-2.67218 6.10797,-7.12597 12.21631,-3.81786 12.21631,-3.81786 0,0 7.88918,3.56288 3.43545,13.74283 -4.45373,10.17995 -13.99708,17.56069 -13.99708,17.56069 l -11.834418,9.92549 -13.884424,9.17773 c -1.92e-4,1.5e-4 -3.26e-4,3.8e-4 -5.17e-4,5.2e-4 -0.04801,0.0365 -0.09669,0.0716 -0.147278,0.1049 -0.08514,0.0543 -0.169284,0.11039 -0.256315,0.16175 l -0.727087,0.48059 36.138879,-17.30592 c 0,0 17.21689,-17.14225 14.25236,-29.14034 -2.08513,-8.43895 -9.03511,-11.32489 -9.03511,-11.32489 0,0 -2.36211,-1.57502 -6.49572,-1.6645 z m 36.32698,33.25172 c -15.96436,0.20201 -33.74161,7.26157 -33.74161,7.26157 l -0.14056,0.339 -36.79724,18.22369 c -0.07199,0.039 -0.144187,0.0781 -0.214974,0.11938 -0.130947,0.0763 -0.264737,0.1478 -0.398425,0.2191 -0.02304,0.0123 -0.04613,0.0246 -0.06925,0.0367 l -0.12299,0.49351 0.08785,-0.47542 c -0.145896,0.0756 -0.293989,0.14742 -0.446484,0.20929 -0.08373,0.0313 -0.16771,0.0619 -0.252698,0.0894 -0.02638,0.0136 -0.05279,0.0275 -0.07906,0.0413 -0.19859,0.105 -0.403385,0.19786 -0.604614,0.29766 -0.257929,0.13478 -0.52864,0.24146 -0.798918,0.3483 -0.08888,0.0367 -0.17865,0.0707 -0.269234,0.10232 -7.526894,3.88734 -30.20751,14.71203 -41.954028,10.54871 -14.216668,-5.03879 -2.699577,-16.91577 -2.699577,-16.91577 0,0 -12.23736,10.97727 -3.41943,20.51503 8.81793,9.53776 30.781983,1.35584 35.460885,0.0961 3.895071,-1.04867 10.527699,-4.40919 12.640572,-5.50561 l -0.01085,0.0429 c 0,0 0.167589,-0.10123 0.488342,-0.29197 0.123676,-0.065 0.189653,-0.10025 0.189653,-0.10025 l 0.0026,-0.0139 c 0.09489,-0.0562 0.199379,-0.11787 0.313159,-0.185 -2.681401,4.90451 -8.745506,18.4103 -3.058728,31.91639 7.125965,16.92416 22.01416,22.01416 22.01416,22.01416 0,0 22.904949,9.16192 40.338109,-5.21725 17.43316,-14.37918 14.37948,-31.55776 14.37948,-31.55776 0,0 -1.61736,-19.63336 -17.01453,-28.03182 -4.81161,-2.62452 -7.46822,-0.54064 -10.03294,-0.65342 -5.64237,-0.2481 -7.97712,1.01333 -7.97712,1.01333 0,0 16.1917,2.98578 22.93592,14.31097 6.74421,11.3252 6.61656,27.23106 -4.83588,37.02926 -11.45244,9.7982 -22.77719,9.2892 -27.73991,8.39845 -4.962718,-0.89074 -18.832999,-4.70791 -24.55922,-19.72334 -5.726221,-15.01542 3.308325,-27.48618 3.308325,-27.48618 0,0 3.054153,-4.45341 5.599141,-6.61665 1.305405,-1.10959 4.418611,-3.39093 7.141683,-5.35006 0.0045,-0.004 0.0089,-0.007 0.01344,-0.0109 0.01062,-0.007 0.0214,-0.0144 0.03204,-0.0217 2.512591,-1.80727 4.584161,-3.26316 4.674131,-3.32641 3.63995,-1.76016 7.2066,-3.5371 11.1435,-5.23069 0.006,-0.003 0.0127,-0.006 0.0196,-0.009 16.19411,-6.96474 33.87573,-12.51593 44.6443,-9.6821 23.93439,6.29852 -0.54001,24.83415 -0.54001,24.83415 0,0 26.09395,-13.85639 11.15745,-26.81335 -4.66765,-4.04905 -11.54956,-5.37419 -18.80608,-5.28237 z m -0.57361,10.43037 c -1.17824,3.48528 -4.44934,6.01923 -8.33696,6.07974 l -19.50217,0.30329 h -5.2e-4 c -1.36861,0.58401 -15.21876,6.52518 -16.60828,8.37159 l 36.56986,-0.72709 c 8.55579,-0.17012 15.54121,-6.00488 17.03564,-13.65033 z"
         sodipodi:nodetypes="sscscsccscsscsccccccccscscccccscccccccccscssccccccscscsscsssscsccccccscscccccccccc" /></g></g></svg>
